<?xml version="1.0" encoding="UTF-8"?>
<svg xmlns="http://www.w3.org/2000/svg" xmlns:xlink="http://www.w3.org/1999/xlink" width="45px" height="45px" viewBox="0 0 45 45" version="1.1">
<g id="surface1">
<path style=" stroke:none;fill-rule:nonzero;fill:rgb(0%,0%,0%);fill-opacity:1;" d="M 5.394531 25.949219 L 9.28125 25.949219 C 9.683594 25.949219 10.011719 25.625 10.011719 25.222656 C 10.011719 24.820312 9.683594 24.492188 9.28125 24.492188 L 5.394531 24.492188 C 4.992188 24.492188 4.664062 24.820312 4.664062 25.222656 C 4.664062 25.625 4.992188 25.949219 5.394531 25.949219 Z M 5.394531 25.949219 "/>
<path style=" stroke:none;fill-rule:nonzero;fill:rgb(0%,0%,0%);fill-opacity:1;" d="M 10.011719 27.554688 C 10.011719 27.152344 9.683594 26.824219 9.28125 26.824219 L 5.394531 26.824219 C 4.992188 26.824219 4.664062 27.152344 4.664062 27.554688 C 4.664062 27.957031 4.992188 28.28125 5.394531 28.28125 L 9.28125 28.28125 C 9.683594 28.28125 10.011719 27.957031 10.011719 27.554688 Z M 10.011719 27.554688 "/>
<path style=" stroke:none;fill-rule:nonzero;fill:rgb(0%,0%,0%);fill-opacity:1;" d="M 44.277344 29.9375 L 37.132812 8.25 C 37.132812 8.246094 37.128906 8.242188 37.128906 8.238281 C 36.847656 7.296875 35.972656 6.609375 34.941406 6.609375 C 34.648438 6.609375 34.371094 6.664062 34.113281 6.765625 C 34.09375 6.769531 21.105469 12.246094 21.097656 12.253906 C 20.46875 12.511719 19.960938 13.003906 19.679688 13.617188 C 19.675781 13.625 19.671875 13.636719 19.667969 13.644531 L 16.976562 19.828125 L 15.503906 19.828125 C 15.097656 19.828125 14.773438 20.152344 14.773438 20.554688 L 14.773438 22.160156 L 3.839844 22.160156 C 3.007812 22.160156 2.332031 22.835938 2.332031 23.667969 L 2.332031 29.109375 C 2.332031 29.941406 3.007812 30.617188 3.839844 30.617188 L 5.441406 30.617188 L 5.441406 32.269531 L 3.0625 32.269531 C 1.375 32.269531 0 33.640625 0 35.328125 C 0 37.015625 1.375 38.390625 3.0625 38.390625 L 23.277344 38.390625 C 24.964844 38.390625 26.339844 37.015625 26.339844 35.328125 C 26.339844 33.640625 24.964844 32.269531 23.277344 32.269531 L 20.894531 32.269531 L 20.894531 30.617188 L 23.277344 30.617188 C 23.503906 30.617188 23.714844 30.511719 23.851562 30.335938 C 23.992188 30.160156 24.039062 29.925781 23.984375 29.710938 L 22.355469 23.1875 L 24.261719 16.621094 L 33.640625 11.804688 L 40.949219 30.152344 L 36.949219 34.601562 L 35.71875 34.601562 C 35.316406 34.601562 34.988281 34.925781 34.988281 35.328125 C 34.988281 35.730469 35.316406 36.058594 35.71875 36.058594 L 44.269531 36.058594 C 44.671875 36.058594 45 35.730469 45 35.328125 L 45 31.605469 C 45 30.953125 44.730469 30.359375 44.277344 29.9375 Z M 3.0625 36.933594 C 2.175781 36.933594 1.457031 36.214844 1.457031 35.328125 C 1.457031 34.445312 2.175781 33.726562 3.0625 33.726562 C 3.945312 33.726562 4.664062 34.445312 4.664062 35.328125 C 4.664062 36.214844 3.945312 36.933594 3.0625 36.933594 Z M 23.277344 33.726562 C 24.160156 33.726562 24.882812 34.445312 24.882812 35.328125 C 24.882812 36.214844 24.160156 36.933594 23.277344 36.933594 C 22.394531 36.933594 21.675781 36.214844 21.675781 35.328125 C 21.675781 34.445312 22.394531 33.726562 23.277344 33.726562 Z M 16.230469 21.285156 L 19.730469 21.285156 C 20.109375 21.285156 20.441406 21.542969 20.53125 21.910156 L 21.566406 26.046875 L 16.230469 26.046875 Z M 15.503906 30.617188 L 19.4375 30.617188 L 19.4375 32.269531 L 6.902344 32.269531 L 6.902344 30.617188 Z M 3.839844 29.15625 C 3.8125 29.15625 3.789062 29.136719 3.789062 29.109375 L 3.789062 23.667969 C 3.789062 23.640625 3.8125 23.617188 3.839844 23.617188 L 14.773438 23.617188 L 14.773438 29.15625 Z M 20.671875 36.933594 L 5.667969 36.933594 C 5.957031 36.464844 6.125 35.917969 6.125 35.328125 C 6.125 34.742188 5.957031 34.191406 5.667969 33.726562 L 20.671875 33.726562 C 20.382812 34.191406 20.214844 34.742188 20.214844 35.328125 C 20.214844 35.917969 20.382812 36.464844 20.671875 36.933594 Z M 16.230469 29.15625 L 16.230469 27.503906 L 21.929688 27.503906 L 22.34375 29.15625 Z M 21.550781 20.730469 C 21.128906 20.175781 20.464844 19.828125 19.730469 19.828125 L 18.566406 19.828125 L 20.046875 16.421875 C 20.539062 17.015625 21.28125 17.398438 22.109375 17.398438 C 22.253906 17.398438 22.394531 17.386719 22.527344 17.363281 Z M 22.109375 15.941406 C 21.441406 15.941406 20.894531 15.394531 20.894531 14.726562 C 20.894531 14.054688 21.441406 13.507812 22.109375 13.507812 C 22.78125 13.507812 23.324219 14.054688 23.324219 14.726562 C 23.324219 15.394531 22.78125 15.941406 22.109375 15.941406 Z M 24.785156 14.714844 C 24.78125 13.898438 24.410156 13.167969 23.828125 12.679688 L 32.660156 8.957031 C 32.667969 9.25 32.730469 9.53125 32.839844 9.789062 C 32.839844 9.789062 32.839844 9.792969 32.84375 9.796875 L 33.101562 10.441406 Z M 34.113281 8.894531 C 34.113281 8.4375 34.484375 8.066406 34.941406 8.066406 C 35.394531 8.066406 35.765625 8.4375 35.765625 8.894531 C 35.765625 9.347656 35.394531 9.71875 34.941406 9.71875 C 34.484375 9.71875 34.113281 9.347656 34.113281 8.894531 Z M 34.960938 11.175781 C 35.503906 11.171875 36 10.976562 36.390625 10.65625 L 42.542969 29.328125 C 42.429688 29.335938 42.320312 29.351562 42.210938 29.375 Z M 43.542969 34.601562 L 38.910156 34.601562 L 42.101562 31.054688 C 42.453125 30.664062 42.886719 30.789062 43.011719 30.835938 C 43.136719 30.882812 43.542969 31.078125 43.542969 31.605469 Z M 43.542969 34.601562 "/>
<path style=" stroke:none;fill-rule:nonzero;fill:rgb(0%,0%,0%);fill-opacity:1;" d="M 7.726562 36.058594 L 18.613281 36.058594 C 19.015625 36.058594 19.339844 35.730469 19.339844 35.328125 C 19.339844 34.925781 19.015625 34.601562 18.613281 34.601562 L 7.726562 34.601562 C 7.324219 34.601562 6.996094 34.925781 6.996094 35.328125 C 6.996094 35.730469 7.324219 36.058594 7.726562 36.058594 Z M 7.726562 36.058594 "/>
</g>
</svg>
