<?xml version="1.0" encoding="UTF-8"?>
<svg xmlns="http://www.w3.org/2000/svg" xmlns:xlink="http://www.w3.org/1999/xlink" width="45px" height="45px" viewBox="0 0 45 45" version="1.1">
<g id="surface1">
<path style=" stroke:none;fill-rule:nonzero;fill:rgb(0%,0%,0%);fill-opacity:1;" d="M 11.710938 30.984375 C 11.636719 30.996094 11.566406 31 11.492188 31 C 11.039062 31 10.632812 30.773438 10.382812 30.414062 C 9.175781 30.753906 8.265625 31.816406 8.152344 33.101562 C 8.578125 32.886719 9.441406 32.699219 11.21875 32.699219 C 13 32.699219 13.863281 32.886719 14.289062 33.101562 C 14.1875 31.972656 13.472656 31.011719 12.480469 30.566406 C 12.28125 30.777344 12.019531 30.933594 11.710938 30.984375 Z M 9.878906 31.761719 C 9.96875 31.6875 10.066406 31.621094 10.167969 31.558594 C 10.257812 31.625 10.355469 31.683594 10.457031 31.734375 C 10.253906 31.738281 10.0625 31.75 9.878906 31.761719 Z M 9.878906 31.761719 "/>
<path style=" stroke:none;fill-rule:nonzero;fill:rgb(0%,0%,0%);fill-opacity:1;" d="M 37.890625 1.289062 C 37.820312 0.566406 37.207031 0 36.46875 0 L 28.09375 0 C 27.304688 0 26.664062 0.640625 26.664062 1.429688 L 26.664062 3.761719 C 26.664062 4.550781 27.304688 5.191406 28.09375 5.191406 L 30.851562 5.191406 C 30.851562 5.199219 30.851562 6.132812 30.851562 6.132812 C 30.273438 6.316406 29.855469 6.859375 29.855469 7.496094 L 29.855469 10.5625 C 29.855469 11.109375 30.042969 11.628906 30.375 12.050781 C 30.300781 12.511719 30.140625 12.925781 29.90625 13.28125 C 29.042969 14.585938 26.996094 15.441406 24.035156 15.773438 C 24.765625 15.015625 25.21875 13.988281 25.21875 12.855469 C 25.21875 10.535156 23.332031 8.648438 21.011719 8.648438 C 18.695312 8.648438 16.804688 10.535156 16.804688 12.855469 C 16.804688 14.089844 17.34375 15.199219 18.195312 15.96875 C 16.1875 16.117188 13.714844 16.738281 11.765625 18.628906 C 9.417969 20.914062 8.503906 24.371094 9.039062 28.921875 C 7.367188 29.746094 6.257812 31.472656 6.257812 33.375 L 6.257812 35.21875 C 6.257812 35.660156 6.453125 36.050781 6.765625 36.316406 L 6.765625 39.699219 C 6.765625 41.402344 9.019531 41.632812 11.21875 41.632812 C 13.421875 41.632812 15.675781 41.402344 15.675781 39.699219 L 15.675781 36.316406 C 15.734375 36.265625 15.789062 36.210938 15.839844 36.152344 L 15.839844 42.261719 C 15.839844 43.769531 17.066406 45 18.578125 45 C 19.660156 45 20.597656 44.367188 21.042969 43.453125 C 21.488281 44.367188 22.425781 45 23.507812 45 C 25.019531 45 26.246094 43.769531 26.246094 42.261719 L 26.246094 20.164062 C 29.8125 19.496094 32.351562 18.050781 33.800781 15.855469 C 35.652344 13.054688 35.089844 9.972656 34.707031 8.636719 L 34.707031 7.496094 C 34.707031 7.082031 34.53125 6.710938 34.25 6.453125 L 37.457031 6.128906 C 38.191406 6.054688 38.742188 5.441406 38.742188 4.703125 L 38.742188 2.597656 C 38.742188 2.011719 38.394531 1.511719 37.890625 1.289062 Z M 17.785156 12.855469 C 17.785156 11.074219 19.230469 9.628906 21.011719 9.628906 C 22.796875 9.628906 24.242188 11.070312 24.242188 12.855469 C 24.242188 14.636719 22.796875 16.082031 21.011719 16.082031 C 19.230469 16.082031 17.785156 14.636719 17.785156 12.855469 Z M 15.839844 31.558594 C 15.441406 30.554688 14.71875 29.691406 13.773438 29.121094 C 13.242188 25.710938 13.660156 23.308594 15.015625 21.984375 C 15.253906 21.75 15.527344 21.542969 15.839844 21.367188 Z M 37.765625 4.707031 C 37.765625 4.9375 37.589844 5.132812 37.359375 5.15625 L 32.734375 5.621094 L 32.734375 7.042969 L 33.273438 7.042969 C 33.523438 7.042969 33.726562 7.246094 33.726562 7.496094 L 33.726562 8.777344 C 34.089844 9.957031 34.667969 12.773438 32.984375 15.316406 C 31.578125 17.445312 28.988281 18.789062 25.269531 19.335938 L 25.269531 42.261719 C 25.269531 43.234375 24.480469 44.023438 23.507812 44.023438 C 22.535156 44.023438 21.746094 43.234375 21.746094 42.261719 L 21.746094 33.164062 L 20.339844 33.164062 L 20.339844 42.261719 C 20.339844 43.234375 19.550781 44.023438 18.578125 44.023438 C 17.605469 44.023438 16.816406 43.234375 16.816406 42.261719 L 16.816406 19.925781 C 15.933594 20.164062 15.050781 20.582031 14.328125 21.285156 C 12.714844 22.863281 12.210938 25.601562 12.832031 29.425781 C 12.847656 29.53125 12.847656 29.636719 12.84375 29.738281 C 14.234375 30.363281 15.207031 31.757812 15.207031 33.375 L 15.207031 35.222656 C 15.207031 35.46875 15.003906 35.671875 14.753906 35.671875 L 14.695312 35.671875 L 14.695312 39.699219 C 14.695312 39.9375 14.695312 40.65625 11.21875 40.65625 C 7.742188 40.65625 7.742188 39.9375 7.742188 39.699219 L 7.742188 35.671875 L 7.6875 35.671875 C 7.4375 35.671875 7.234375 35.46875 7.234375 35.222656 L 7.234375 33.375 C 7.234375 31.5625 8.449219 30.03125 10.109375 29.550781 C 9.421875 24.953125 10.203125 21.511719 12.449219 19.332031 C 15.152344 16.703125 19.082031 16.816406 20.621094 16.984375 C 20.753906 16.941406 20.894531 16.910156 21.042969 16.910156 C 26.039062 16.910156 29.386719 15.839844 30.71875 13.820312 C 31.175781 13.132812 31.355469 12.382812 31.394531 11.699219 C 31.054688 11.433594 30.832031 11.023438 30.832031 10.5625 L 30.832031 7.496094 C 30.832031 7.246094 31.035156 7.042969 31.285156 7.042969 L 31.828125 7.042969 L 31.828125 5.214844 C 31.828125 4.980469 32.003906 4.785156 32.234375 4.761719 L 36.859375 4.296875 L 36.859375 3.972656 C 36.785156 4.113281 36.640625 4.214844 36.46875 4.214844 L 28.09375 4.214844 C 27.84375 4.214844 27.640625 4.011719 27.640625 3.761719 L 27.640625 1.429688 C 27.640625 1.179688 27.84375 0.976562 28.09375 0.976562 L 36.46875 0.976562 C 36.71875 0.976562 36.921875 1.179688 36.921875 1.429688 L 36.921875 2.386719 C 36.996094 2.242188 37.140625 2.144531 37.3125 2.144531 C 37.5625 2.144531 37.765625 2.347656 37.765625 2.597656 Z M 37.765625 4.707031 "/>
</g>
</svg>
