<?xml version="1.0" encoding="UTF-8"?>
<svg xmlns="http://www.w3.org/2000/svg" xmlns:xlink="http://www.w3.org/1999/xlink" width="45px" height="45px" viewBox="0 0 45 45" version="1.1">
<g id="surface1">
<path style=" stroke:none;fill-rule:evenodd;fill:rgb(12.54902%,16.862746%,21.568628%);fill-opacity:1;" d="M 39.375 26.71875 C 36.5625 26.71875 36.5625 25.3125 33.75 25.3125 C 33.179688 25.3125 32.730469 25.371094 32.34375 25.464844 L 32.34375 12.65625 C 32.34375 10.328125 34.234375 8.4375 36.5625 8.4375 C 38.890625 8.4375 40.78125 10.328125 40.78125 12.65625 C 40.78125 13.042969 41.097656 13.359375 41.484375 13.359375 C 41.871094 13.359375 42.1875 13.042969 42.1875 12.65625 C 42.1875 9.550781 39.667969 7.03125 36.5625 7.03125 C 33.457031 7.03125 30.9375 9.550781 30.9375 12.65625 L 30.9375 15.46875 L 16.875 15.46875 L 16.875 12.65625 C 16.875 10.328125 18.765625 8.4375 21.09375 8.4375 C 23.421875 8.4375 25.3125 10.328125 25.3125 12.65625 C 25.3125 13.042969 25.628906 13.359375 26.015625 13.359375 C 26.402344 13.359375 26.71875 13.042969 26.71875 12.65625 C 26.71875 9.550781 24.199219 7.03125 21.09375 7.03125 C 17.988281 7.03125 15.46875 9.550781 15.46875 12.65625 L 15.46875 26.566406 C 13.949219 26.203125 13.492188 25.3125 11.25 25.3125 C 8.4375 25.3125 8.4375 26.71875 5.625 26.71875 C 2.8125 26.71875 2.8125 25.3125 0 25.3125 L 0 26.71875 C 2.8125 26.71875 2.8125 28.125 5.625 28.125 C 8.4375 28.125 8.4375 26.71875 11.25 26.71875 C 14.0625 26.71875 14.0625 28.125 16.875 28.125 C 19.6875 28.125 19.6875 26.71875 22.5 26.71875 C 25.3125 26.71875 25.3125 28.125 28.125 28.125 C 30.9375 28.125 30.9375 26.71875 33.75 26.71875 C 36.5625 26.71875 36.5625 28.125 39.375 28.125 C 42.1875 28.125 42.1875 26.71875 45 26.71875 L 45 25.3125 C 42.1875 25.3125 42.1875 26.71875 39.375 26.71875 Z M 16.875 16.875 L 30.9375 16.875 L 30.9375 21.09375 L 16.875 21.09375 Z M 22.5 25.3125 C 19.6875 25.3125 19.6875 26.71875 16.875 26.71875 L 16.875 22.5 L 30.9375 22.5 L 30.9375 26.015625 C 30.234375 26.367188 29.53125 26.71875 28.125 26.71875 C 25.3125 26.71875 25.3125 25.3125 22.5 25.3125 Z M 0 36.5625 C 2.8125 36.5625 2.8125 37.96875 5.625 37.96875 C 8.4375 37.96875 8.4375 36.5625 11.25 36.5625 C 14.0625 36.5625 14.0625 37.96875 16.875 37.96875 C 19.6875 37.96875 19.6875 36.5625 22.5 36.5625 C 25.3125 36.5625 25.3125 37.96875 28.125 37.96875 C 30.9375 37.96875 30.9375 36.5625 33.75 36.5625 C 36.5625 36.5625 36.5625 37.96875 39.375 37.96875 C 42.1875 37.96875 42.1875 36.5625 45 36.5625 L 45 37.96875 C 42.1875 37.96875 42.1875 39.375 39.375 39.375 C 36.5625 39.375 36.5625 37.96875 33.75 37.96875 C 30.9375 37.96875 30.9375 39.375 28.125 39.375 C 25.3125 39.375 25.3125 37.96875 22.5 37.96875 C 19.6875 37.96875 19.6875 39.375 16.875 39.375 C 14.0625 39.375 14.0625 37.96875 11.25 37.96875 C 8.4375 37.96875 8.4375 39.375 5.625 39.375 C 2.8125 39.375 2.8125 37.96875 0 37.96875 Z M 0 30.9375 C 2.8125 30.9375 2.8125 32.34375 5.625 32.34375 C 8.4375 32.34375 8.4375 30.9375 11.25 30.9375 C 14.0625 30.9375 14.0625 32.34375 16.875 32.34375 C 19.6875 32.34375 19.6875 30.9375 22.5 30.9375 C 25.3125 30.9375 25.3125 32.34375 28.125 32.34375 C 30.9375 32.34375 30.9375 30.9375 33.75 30.9375 C 36.5625 30.9375 36.5625 32.34375 39.375 32.34375 C 42.1875 32.34375 42.1875 30.9375 45 30.9375 L 45 32.34375 C 42.1875 32.34375 42.1875 33.75 39.375 33.75 C 36.5625 33.75 36.5625 32.34375 33.75 32.34375 C 30.9375 32.34375 30.9375 33.75 28.125 33.75 C 25.3125 33.75 25.3125 32.34375 22.5 32.34375 C 19.6875 32.34375 19.6875 33.75 16.875 33.75 C 14.0625 33.75 14.0625 32.34375 11.25 32.34375 C 8.4375 32.34375 8.4375 33.75 5.625 33.75 C 2.8125 33.75 2.8125 32.34375 0 32.34375 Z M 0 30.9375 "/>
</g>
</svg>
