<?xml version="1.0" encoding="utf-8"?>
<!-- Generator: Adobe Illustrator 21.0.2, SVG Export Plug-In . SVG Version: 6.00 Build 0)  -->
<svg version="1.1" id="Layer_1" xmlns="http://www.w3.org/2000/svg" xmlns:xlink="http://www.w3.org/1999/xlink" x="0px" y="0px"
	 viewBox="0 0 45.4 27" style="enable-background:new 0 0 45.4 27;" xml:space="preserve">
<style type="text/css">
	.st0{fill:#FF7226;}
	.st1{fill:#3B3B3B;}
</style>
<g>
	<g>
		<path class="st0" d="M19.6,14.1v4.2c-0.8-0.5-1.7-1-2.6-1.7c-0.7-0.5-1.4-1.1-2-1.6c0.6-0.5,0.9-1.3,0.7-2
			c-0.2-0.9-1.1-1.5-2.1-1.4V8.1c0.8,0.1,1.5-0.1,1.9-0.7C16.2,6.7,16,5.4,15,4.6c0.4-0.5,0.9-1,1.5-1.5c0.4-0.3,0.8-0.6,1.1-0.9
			c0.1,0.1,0.7,0.9,1.7,0.8C20.3,2.9,21,2,21,0.9c0.5,0,1.1,0,1.7,0c0.6,0,1.1,0,1.6,0c-0.1,0.9,0.4,1.7,1.3,2
			c0.8,0.3,1.7,0,2.2-0.7c0.8,0.8,1.7,1.6,2.5,2.4c-1,1-1,2.4-0.4,3.1c0.6,0.7,1.6,0.5,1.8,0.5c0,0.5,0.1,1,0.1,1.6
			c0,0.6,0,1.2-0.1,1.7c-0.9,0-1.7,0.6-2,1.4c-0.2,0.8,0,1.6,0.6,2.2c-0.7,0.6-1.4,1.2-2.2,1.8c-0.8,0.6-1.6,1.1-2.3,1.6
			c0-1.4,0-2.7,0-4.1c2-1.7,2.7-4.5,1.7-6.7c-0.4-0.8-0.9-1.5-1.6-2C23.9,4,21,4.1,19,5.8c-0.6,0.5-1,1.1-1.3,1.8
			C16.8,9.8,17.5,12.5,19.6,14.1z"/>
		<path class="st1" d="M20.7,6.5l-0.1,3.2l2,1.4l2-1.2V6.5c1.3,0.7,2.1,2.1,2.1,3.5c0,1.6-1.1,3-2.6,3.6c0,1.6,0,3.2,0,4.8h-2.7
			v-4.5c-1.9-0.9-2.9-2.8-2.6-4.6C19.1,7.7,20.4,6.7,20.7,6.5z"/>
	</g>
	<g>
		<path d="M1.4,22.9L1.4,22.9c0-1.8,1.4-3.3,3.4-3.3s3.3,1.4,3.3,3.2v0c0,1.8-1.4,3.2-3.4,3.2C2.8,26.1,1.4,24.7,1.4,22.9z
			 M6.3,22.9L6.3,22.9c0-0.9-0.6-1.7-1.6-1.7c-0.9,0-1.6,0.8-1.6,1.7v0c0,0.9,0.6,1.7,1.6,1.7C5.7,24.6,6.3,23.8,6.3,22.9z"/>
		<path d="M9.2,22.6H8.6v-1.3h0.6v-0.1c0-0.6,0.1-1,0.4-1.2c0.3-0.3,0.7-0.4,1.3-0.4c0.5,0,0.8,0.1,1.1,0.1v1.2
			c-0.2-0.1-0.4-0.1-0.6-0.1c-0.3,0-0.5,0.1-0.5,0.5v0.1h1.1v1.3h-1.1V26H9.2V22.6z"/>
		<path d="M12.5,21.2h1.7V26h-1.7V21.2z"/>
		<path d="M14.9,23.6L14.9,23.6c0-1.4,1.1-2.5,2.6-2.5c1,0,1.6,0.4,2.1,1.1L18.4,23c-0.2-0.3-0.5-0.5-0.9-0.5
			c-0.5,0-0.9,0.5-0.9,1.1v0c0,0.6,0.4,1.1,1,1.1c0.4,0,0.7-0.2,0.9-0.5l1.1,0.8c-0.4,0.7-1.1,1.1-2.1,1.1
			C16,26.1,14.9,25,14.9,23.6z"/>
		<path d="M20.2,21.2h1.7V26h-1.7V21.2z"/>
		<path d="M22.7,23.6L22.7,23.6c0-1.4,1.1-2.5,2.7-2.5c1.5,0,2.6,1.1,2.6,2.5v0c0,1.4-1.1,2.5-2.7,2.5C23.8,26.1,22.7,25,22.7,23.6z
			 M26.3,23.6L26.3,23.6c0-0.6-0.4-1.1-1-1.1c-0.6,0-1,0.5-1,1.1v0c0,0.6,0.4,1.1,1,1.1C25.9,24.7,26.3,24.2,26.3,23.6z"/>
		<path d="M28.3,25.4l0.6-1c0.6,0.4,1.2,0.6,1.7,0.6c0.3,0,0.4-0.1,0.4-0.3v0c0-0.2-0.3-0.3-0.8-0.4c-1-0.2-1.7-0.6-1.7-1.5v0
			c0-1,0.8-1.6,1.9-1.6c0.7,0,1.4,0.2,2,0.6l-0.6,1.1c-0.5-0.3-1-0.4-1.4-0.4c-0.3,0-0.4,0.1-0.4,0.2v0c0,0.2,0.3,0.3,0.8,0.4
			c1,0.3,1.7,0.6,1.7,1.5v0c0,1.1-0.8,1.6-2,1.6C29.8,26.1,29,25.9,28.3,25.4z"/>
		<path class="st0" d="M33.1,24.7l2.3-1.8c0.6-0.5,0.8-0.7,0.8-1.1c0-0.4-0.3-0.6-0.7-0.6s-0.7,0.2-1.2,0.8l-1.2-1
			c0.7-0.9,1.3-1.3,2.5-1.3c1.4,0,2.3,0.8,2.3,2v0c0,1-0.5,1.5-1.4,2.2l-1.1,0.7H38V26h-4.9V24.7z"/>
		<path class="st0" d="M41.6,24.8h-3l-0.3-1.2l3.2-3.8h1.7v3.8h0.8v1.3h-0.8V26h-1.7V24.8z M41.6,23.5v-1.8l-1.5,1.8H41.6z"/>
		<circle cx="13.3" cy="20.2" r="0.7"/>
		<circle cx="21.1" cy="20.2" r="0.7"/>
	</g>
</g>
</svg>
